<?xml version="1.0" standalone="no"?>
<!DOCTYPE svg PUBLIC "-//W3C//DTD SVG 20010904//EN"
 "http://www.w3.org/TR/2001/REC-SVG-20010904/DTD/svg10.dtd">
<svg version="1.0" xmlns="http://www.w3.org/2000/svg"
 width="512.000000pt" height="512.000000pt" viewBox="0 0 512.000000 512.000000"
 preserveAspectRatio="xMidYMid meet">
<metadata>
Created by potrace 1.16, written by Peter Selinger 2001-2019
</metadata>
<g transform="translate(0.000000,512.000000) scale(0.100000,-0.100000)"
fill="#000000" stroke="none">
<path d="M3158 5104 c-42 -22 -53 -51 -58 -158 l-5 -99 -52 -18 c-29 -10 -74
-29 -101 -42 l-50 -25 -53 55 c-64 65 -96 83 -144 83 -54 0 -80 -18 -192 -132
-79 -81 -103 -111 -108 -140 -10 -55 9 -98 70 -158 l56 -55 -1139 -5 -1139 -5
-69 -35 c-50 -25 -79 -49 -106 -85 -74 -97 -69 34 -66 -1710 l3 -1570 29 -53
c37 -66 92 -116 165 -151 l56 -26 401 0 c381 0 403 1 423 19 30 27 28 80 -4
111 l-24 25 -376 0 c-315 0 -382 2 -412 15 -97 41 -112 82 -113 303 l0 172
2410 0 2410 0 0 -170 c0 -218 -15 -260 -105 -301 -38 -18 -113 -19 -1776 -19
l-1736 0 -20 -22 c-34 -38 -37 -73 -9 -105 l24 -28 323 -3 322 -3 -7 -137 c-7
-137 -30 -366 -44 -432 l-8 -35 -148 -5 c-140 -5 -149 -6 -167 -29 -25 -31
-25 -85 1 -111 20 -20 33 -20 940 -20 907 0 920 0 940 20 26 26 26 80 1 111
-18 23 -27 24 -167 29 l-148 5 -8 35 c-14 66 -37 295 -44 432 l-7 137 869 3
869 3 56 26 c73 35 128 85 165 151 l29 53 0 1585 0 1585 -24 49 c-33 66 -91
122 -160 155 l-56 26 -348 5 -348 5 56 55 c61 60 80 103 70 158 -5 29 -29 59
-108 140 -112 114 -138 132 -192 132 -48 0 -80 -18 -143 -83 l-53 -54 -51 25
c-28 13 -74 32 -102 42 l-51 17 -5 99 c-8 166 -21 174 -252 174 -124 -1 -169
-4 -190 -16z m282 -213 c0 -134 23 -168 143 -206 44 -15 106 -40 138 -56 61
-30 115 -37 152 -18 12 6 47 36 77 65 l56 54 64 -65 64 -64 -57 -60 c-86 -90
-95 -128 -50 -214 15 -29 43 -95 63 -147 48 -126 67 -140 191 -140 l89 0 0
-95 0 -95 -87 0 c-127 0 -156 -21 -189 -131 -8 -27 -33 -86 -54 -131 -59 -121
-55 -144 38 -240 l55 -56 -24 -29 c-13 -15 -42 -45 -64 -65 l-41 -37 -39 37
c-116 108 -142 114 -253 58 -37 -18 -97 -43 -134 -55 -117 -39 -138 -70 -138
-208 l0 -73 -90 0 -90 0 0 68 c0 82 -15 137 -44 167 -12 12 -53 32 -90 44 -38
12 -100 38 -137 57 -97 48 -150 44 -209 -16 -3 -3 -25 -23 -48 -45 l-42 -39
-65 64 -64 64 59 62 c90 93 98 128 51 215 -16 30 -41 90 -57 134 -15 44 -34
90 -41 102 -24 37 -74 53 -162 53 l-81 0 0 95 0 95 89 0 c122 0 145 16 186
130 17 47 46 114 63 150 49 100 44 126 -46 217 l-60 61 67 66 67 66 49 -51
c91 -93 130 -99 256 -40 46 22 106 45 133 52 62 15 111 62 119 115 4 22 7 67
7 102 l0 62 90 0 90 0 0 -79z m-1270 -1033 c0 -61 23 -113 62 -142 21 -15 50
-21 124 -25 l96 -6 18 -51 c9 -28 29 -74 43 -101 l25 -51 -64 -63 c-112 -111
-108 -155 20 -288 112 -116 148 -141 204 -141 41 0 49 5 117 71 l73 70 43 -21
c23 -12 70 -33 103 -45 l61 -23 5 -93 c5 -100 14 -125 56 -158 25 -19 40 -21
194 -21 154 0 169 2 194 21 42 33 51 58 56 158 l5 93 61 23 c33 12 80 33 103
45 l43 21 73 -70 c68 -66 76 -71 117 -71 55 0 90 24 200 136 131 134 135 183
24 293 l-65 64 26 51 c14 28 34 74 44 101 l17 50 96 6 c74 4 103 10 124 25 39
29 62 81 62 142 l0 52 48 0 c26 0 53 -5 60 -12 9 -9 12 -282 12 -1165 l0
-1153 -2090 0 -2090 0 0 1159 c0 918 3 1160 13 1164 6 3 389 6 850 6 l837 1 0
-52z m800 -3110 c0 -117 42 -544 56 -582 6 -14 -40 -16 -466 -16 -444 0 -471
1 -466 18 16 50 56 464 56 580 l0 32 410 0 410 0 0 -32z"/>
<path d="M3260 4524 c-64 -12 -108 -35 -120 -64 -7 -16 -10 -35 -8 -42 3 -7
-21 -29 -51 -49 -31 -20 -66 -46 -78 -58 -18 -17 -27 -19 -48 -11 -29 11 -62
1 -86 -26 -27 -30 -68 -119 -85 -181 -20 -75 -19 -222 1 -297 51 -191 200
-347 395 -412 85 -29 263 -26 353 5 184 63 333 223 382 408 19 70 21 212 4
279 -63 256 -284 438 -544 449 -49 2 -101 2 -115 -1z m170 -453 c69 -48 88
-131 48 -202 -23 -41 -84 -79 -128 -79 -74 0 -150 78 -150 154 0 116 137 191
230 127z"/>
<path d="M1390 3577 c-45 -23 -70 -73 -70 -142 l0 -61 -71 -28 -70 -28 -54 51
c-47 45 -59 51 -96 51 -39 0 -47 -5 -140 -96 -62 -62 -100 -107 -104 -125 -10
-43 10 -90 59 -138 l43 -43 -22 -46 c-12 -26 -25 -57 -29 -68 -6 -19 -15 -22
-81 -26 -69 -3 -78 -6 -108 -36 l-32 -32 -3 -128 c-3 -120 -2 -129 20 -162 31
-46 61 -60 133 -60 l60 0 31 -69 32 -69 -45 -43 c-52 -52 -72 -104 -54 -147 7
-15 52 -69 102 -118 88 -88 90 -89 139 -89 46 0 53 4 99 49 l49 48 70 -27 70
-27 4 -69 c4 -74 24 -113 69 -136 36 -19 252 -17 289 2 42 22 60 63 60 137 l0
63 71 29 71 28 41 -40 c50 -47 76 -62 112 -62 39 0 63 15 143 94 84 81 102
110 102 161 0 30 -9 46 -51 91 l-52 54 27 59 c14 32 26 64 26 70 0 7 24 11 65
11 130 0 155 33 155 210 0 176 -25 210 -152 210 l-63 0 -27 72 -27 72 49 52
c41 43 50 59 50 89 0 51 -18 80 -102 161 -80 79 -104 94 -143 94 -36 0 -62
-15 -112 -63 l-42 -40 -59 26 c-33 15 -65 27 -71 27 -7 0 -11 24 -11 65 0 77
-18 118 -60 140 -37 19 -253 21 -290 2z m200 -211 c0 -86 24 -116 118 -147 37
-12 87 -33 111 -46 71 -37 114 -28 181 41 l34 36 38 -37 37 -37 -44 -47 c-64
-68 -66 -97 -17 -206 22 -48 43 -99 47 -113 17 -58 74 -90 163 -90 l42 0 0
-50 0 -50 -49 0 c-91 0 -142 -34 -165 -109 -8 -25 -28 -76 -46 -114 -41 -86
-36 -120 25 -186 l44 -47 -37 -37 -38 -37 -34 36 c-41 42 -80 64 -112 64 -13
0 -50 -13 -83 -28 -33 -16 -83 -37 -112 -46 -77 -26 -103 -61 -103 -142 l0
-64 -55 0 -55 0 0 53 c0 77 -24 117 -85 141 -27 10 -83 34 -124 53 -105 48
-129 44 -209 -31 l-32 -30 -37 37 -37 37 43 44 c60 61 64 99 18 197 -19 41
-38 87 -41 103 -17 71 -68 106 -156 106 l-50 0 0 50 0 50 39 0 c93 0 152 37
166 102 4 18 23 67 42 108 45 98 42 135 -18 196 l-43 44 36 37 36 36 47 -41
c67 -59 99 -62 193 -20 42 19 100 44 127 54 61 24 85 64 85 142 l0 52 55 0 55
0 0 -64z"/>
<path d="M1437 3060 c-196 -50 -335 -259 -299 -452 30 -160 141 -283 294 -324
181 -48 376 42 460 214 31 62 33 73 33 172 0 99 -2 110 -33 172 -42 85 -129
168 -209 198 -65 25 -186 35 -246 20z m217 -178 c111 -60 155 -207 97 -320
-80 -155 -292 -182 -404 -51 -59 69 -75 185 -37 264 63 130 215 177 344 107z"/>
<path d="M2347 1239 c-46 -27 -41 -105 9 -128 16 -7 92 -11 204 -11 112 0 188
4 204 11 51 23 55 103 7 128 -26 15 -400 14 -424 0z"/>
</g>
</svg>
